<?xml version="1.0" encoding="UTF-8"?>
<svg width="24px" height="24px" viewBox="0 0 24 24" version="1.1" xmlns="http://www.w3.org/2000/svg">
    <g stroke="none" stroke-width="1" fill="none" fill-rule="evenodd">
        <path d="M22,12 C22,6.48 17.52,2 12,2 C6.48,2 2,6.48 2,12 C2,16.84 5.44,20.87 10,21.8 L10,15 L8,15 L8,12 L10,12 L10,9.5 C10,7.57 11.57,6 13.5,6 L16,6 L16,9 L14,9 C13.45,9 13,9.45 13,10 L13,12 L16,12 L15.5,15 L13,15 L13,21.95 C18.05,21.45 22,17.19 22,12 Z" fill="#000000" fill-rule="nonzero"></path>
    </g>
</svg>